<svg xmlns="http://www.w3.org/2000/svg" data-name="Layer 1" viewBox="0 0 100 125" x="0px" y="0px"><title>Artboard 20</title><path d="M7.83,91.64a11,11,0,0,0,15.8.27l3.75-3.75,8.31-1.06a8,8,0,0,0,4.64-2.28L73.66,51.5,68,45.84,34.67,79.16l-11,1.41L18,86.26A3,3,0,1,1,13.75,82l5.69-5.69,1.41-11L25.15,61l5,5a3.5,3.5,0,1,0,4.95-4.95l-5-5,4.51-4.51,5,5a3.5,3.5,0,0,0,4.95-5l-5-5,4.51-4.51,5,5a3.5,3.5,0,0,0,4.95-5l-5-5L54.16,32l-5.66-5.66L15.18,59.67a8,8,0,0,0-2.28,4.64l-1.06,8.31L8.09,76.38A10.94,10.94,0,0,0,7.83,91.64Z"/><path d="M79.57,28.68a6.91,6.91,0,0,1,3.16-.62l.8,0A11.62,11.62,0,1,0,72,18.11a2.76,2.76,0,0,1-.3,1.82,2.64,2.64,0,0,1-4.14.54l-8-8a5.82,5.82,0,0,0-8.23,0h0L48.46,15.4a1.71,1.71,0,0,0,0,2.41L82.19,51.54a1.71,1.71,0,0,0,2.41,0l2.91-2.91a5.82,5.82,0,0,0,0-8.23L79.08,32A2,2,0,0,1,79.57,28.68Z"/><text x="0" y="115" fill="#000000" font-size="5px" font-weight="bold" font-family="'Helvetica Neue', Helvetica, Arial-Unicode, Arial, Sans-serif">Created by Gregor Cresnar</text><text x="0" y="120" fill="#000000" font-size="5px" font-weight="bold" font-family="'Helvetica Neue', Helvetica, Arial-Unicode, Arial, Sans-serif">from the Noun Project</text></svg>